<?xml version="1.0" encoding="UTF-8" standalone="no"?>
<svg
   xmlns:dc="http://purl.org/dc/elements/1.1/"
   xmlns:cc="http://creativecommons.org/ns#"
   xmlns:rdf="http://www.w3.org/1999/02/22-rdf-syntax-ns#"
   xmlns:svg="http://www.w3.org/2000/svg"
   xmlns="http://www.w3.org/2000/svg"
   xmlns:sodipodi="http://sodipodi.sourceforge.net/DTD/sodipodi-0.dtd"
   xmlns:inkscape="http://www.inkscape.org/namespaces/inkscape"
   width="269.42139"
   height="35.56987"
   viewBox="0 0 269.42139 35.56987"
   version="1.1"
   id="svg15"
   sodipodi:docname="logo7 (1).svg"
   inkscape:version="0.92.3 (2405546, 2018-03-11)">
  <metadata
     id="metadata19">
    <rdf:RDF>
      <cc:Work
         rdf:about="">
        <dc:format>image/svg+xml</dc:format>
        <dc:type
           rdf:resource="http://purl.org/dc/dcmitype/StillImage" />
      </cc:Work>
    </rdf:RDF>
  </metadata>
  <sodipodi:namedview
     pagecolor="#ffffff"
     bordercolor="#666666"
     borderopacity="1"
     objecttolerance="10"
     gridtolerance="10"
     guidetolerance="10"
     inkscape:pageopacity="0"
     inkscape:pageshadow="2"
     inkscape:window-width="1920"
     inkscape:window-height="1048"
     id="namedview17"
     showgrid="false"
     inkscape:zoom="2.6289115"
     inkscape:cx="119.12513"
     inkscape:cy="34.057293"
     inkscape:window-x="1440"
     inkscape:window-y="0"
     inkscape:window-maximized="1"
     inkscape:current-layer="svg15" />
  <defs
     id="defs4">
    <style
       id="style2">
      .cls-1 {
        font-size: 16px;
        font-family: RobotoCondensed;
        font-weight: 700;
      }

      .cls-1, .cls-4 {
        fill: #fff;
      }

      .cls-2 {
        text-transform: uppercase;
      }

      .cls-3 {
        fill: #3f3f3f;
      }

      .cls-4, .cls-5 {
        font-weight: 300;
      }

      .cls-5 {
        font-size: 9px;
      }
    </style>
  </defs>
  <g
     aria-label="DOBRADALOGISTICSНациональная логистическая компания"
     style="font-weight:700;font-size:22.89599991px;font-family:RobotoCondensed;fill:#ffffff;stroke-width:1.43099999"
     id="LOGO">
    <path
       d="M 4.8401059,3.5551416 V 13.739837 h 1.5427969 q 2.6384062,0 4.0246872,-1.308024 1.397461,-1.308023 1.397461,-3.8010933 0,-2.4818906 -1.386281,-3.7787344 Q 9.0324887,3.5551416 6.3829028,3.5551416 Z M 0.53592622,0.30185254 H 5.0748793 q 3.8010938,0 5.6569217,0.54780469 1.867008,0.53662497 3.197391,1.83346877 1.173867,1.1291484 1.744031,2.6048671 0.570164,1.4757188 0.570164,3.3427266 0,1.8893673 -0.570164,3.3762653 -0.570164,1.475719 -1.744031,2.604867 -1.341563,1.296844 -3.21975,1.844649 -1.8781877,0.536625 -5.6345627,0.536625 H 0.53592622 Z"
       style="text-transform:uppercase;fill:#ffffff;stroke-width:1.43099999"
       id="path21"
       inkscape:connector-curvature="0" />
    <path
       d="m 27.165941,3.1191338 q -1.967625,0 -3.052054,1.4533594 -1.08443,1.4533593 -1.08443,4.0917656 0,2.6272262 1.08443,4.0805862 1.084429,1.453359 3.052054,1.453359 1.978805,0 3.063235,-1.453359 1.084429,-1.45336 1.084429,-4.0805862 0,-2.6384063 -1.084429,-4.0917656 -1.08443,-1.4533594 -3.063235,-1.4533594 z m 0,-3.11913281652336 q 4.024688,0 6.305344,2.30301561652336 2.280656,2.3030156 2.280656,6.3612422 0,4.0470472 -2.280656,6.3500622 -2.280656,2.303016 -6.305344,2.303016 -4.013507,0 -6.305343,-2.303016 -2.280657,-2.303015 -2.280657,-6.3500622 0,-4.0582266 2.280657,-6.3612422 Q 23.152434,9.8347664e-7 27.165941,9.8347664e-7 Z"
       style="text-transform:uppercase;fill:#ffffff;stroke-width:1.43099999"
       id="path23"
       inkscape:connector-curvature="0" />
    <path
       d="m 45.679502,6.7637119 q 1.017351,0 1.542796,-0.4471875 0.525446,-0.4471875 0.525446,-1.3192031 0,-0.860836 -0.525446,-1.3080235 -0.525445,-0.4583671 -1.542796,-0.4583671 h -2.381274 v 3.5327812 z m 0.145336,7.3003361 q 1.296843,0 1.945265,-0.547805 0.659602,-0.547805 0.659602,-1.654594 0,-1.084429 -0.648422,-1.621054 Q 47.132861,9.69279 45.824838,9.69279 h -2.52661 v 4.371258 z m 4.002328,-6.0034924 q 1.386281,0.4024688 2.1465,1.4868985 0.760218,1.0844299 0.760218,2.6607659 0,2.414812 -1.632234,3.599859 -1.632234,1.185047 -4.963781,1.185047 H 38.994048 V 0.30185254 h 6.46186 q 3.476883,0 5.030859,1.05089066 1.565156,1.0508906 1.565156,3.3650859 0,1.2185859 -0.570164,2.0794219 -0.570164,0.8496562 -1.654593,1.2633046 z"
       style="text-transform:uppercase;fill:#ffffff;stroke-width:1.43099999"
       id="path25"
       inkscape:connector-curvature="0" />
    <path
       d="m 62.549653,7.7028056 q 1.352742,0 1.934086,-0.5030859 0.592523,-0.5030859 0.592523,-1.6545937 0,-1.1403282 -0.592523,-1.6322344 -0.581344,-0.4919063 -1.934086,-0.4919063 h -1.81111 v 4.2818203 z m -1.81111,2.9737974 v 6.316523 H 56.434364 V 0.30185254 h 6.573656 q 3.298008,0 4.829625,1.10678906 1.542797,1.1067891 1.542797,3.4992422 0,1.6545937 -0.804938,2.716664 -0.793758,1.0620703 -2.403633,1.5651563 0.883196,0.2012343 1.576336,0.9167339 0.704321,0.704321 1.419821,2.1465 l 2.336554,4.740188 H 66.920911 L 64.886207,12.845462 Q 64.271325,11.593337 63.634082,11.13497 63.00802,10.676603 61.957129,10.676603 Z"
       style="text-transform:uppercase;fill:#ffffff;stroke-width:1.43099999"
       id="path27"
       inkscape:connector-curvature="0" />
    <path
       d="m 84.182347,13.952251 h -6.730172 l -1.06207,3.040875 H 72.063566 L 78.245933,0.30185254 h 5.131476 L 89.559777,16.993126 h -4.326539 z m -5.656922,-3.096773 h 4.572492 L 80.817261,4.2147432 Z"
       style="text-transform:uppercase;fill:#ffffff;stroke-width:1.43099999"
       id="path29"
       inkscape:connector-curvature="0" />
    <path
       d="M 96.066356,3.5551416 V 13.739837 h 1.542796 q 2.638408,0 4.024688,-1.308024 1.39746,-1.308023 1.39746,-3.8010933 0,-2.4818906 -1.38628,-3.7787344 -1.38628,-1.2968437 -4.035868,-1.2968437 z m -4.30418,-3.25328906 h 4.538953 q 3.801091,0 5.656921,0.54780469 1.86701,0.53662497 3.19739,1.83346877 1.17387,1.1291484 1.74403,2.6048671 0.57017,1.4757188 0.57017,3.3427266 0,1.8893673 -0.57017,3.3762653 -0.57016,1.475719 -1.74403,2.604867 -1.34156,1.296844 -3.21975,1.844649 -1.87819,0.536625 -5.634561,0.536625 h -4.538953 z"
       style="text-transform:uppercase;fill:#ffffff;stroke-width:1.43099999"
       id="path31"
       inkscape:connector-curvature="0" />
    <path
       d="m 120.89644,13.952251 h -6.73017 l -1.06207,3.040875 h -4.32654 l 6.18237,-16.69127346 h 5.13148 l 6.18236,16.69127346 h -4.32654 z m -5.65692,-3.096773 h 4.57249 l -2.28065,-6.6407348 z"
       style="text-transform:uppercase;fill:#ffffff;stroke-width:1.43099999"
       id="path33"
       inkscape:connector-curvature="0" />
    <path
       d="m 129.16941,0.30185254 h 1.11797 V 16.076392 h 8.12763 v 0.916734 h -9.2456 z"
       style="font-weight:300;fill:#ffffff;stroke-width:1.43099999"
       id="path35"
       inkscape:connector-curvature="0" />
    <path
       d="m 151.6853,2.9626182 q -1.60987,-2.0906016 -4.3489,-2.0906016 -2.73902,0 -4.36008,2.0906016 -1.60987,2.0906015 -1.60987,5.7016406 0,3.5886792 1.60987,5.6792812 1.62106,2.090602 4.36008,2.090602 2.73903,0 4.3489,-2.090602 1.5987,-2.090602 1.5987,-5.6792812 0,-3.6110391 -1.5987,-5.7016406 z M 147.3364,9.8347664e-7 q 3.24211,0 5.18738,2.34773431652336 1.94526,2.3589141 1.94526,6.3165235 0,3.9464292 -1.94526,6.2941642 -1.94527,2.358914 -5.18738,2.358914 -3.25329,0 -5.20973,-2.347735 -1.94527,-2.347734 -1.94527,-6.3053432 0,-3.9576094 1.94527,-6.3165235 Q 144.08311,9.8347664e-7 147.3364,9.8347664e-7 Z"
       style="font-weight:300;fill:#ffffff;stroke-width:1.43099999"
       id="path37"
       inkscape:connector-curvature="0" />
    <path
       d="M 170.53425,15.573306 V 9.7263291 h -4.25946 V 8.8095947 h 5.36625 v 7.3003363 q -1.19623,0.592523 -2.62723,0.883195 -1.431,0.301851 -3.06323,0.324211 -3.62222,0 -5.65692,-2.291836 -2.04589,-2.280656 -2.04589,-6.3612422 0,-4.0917656 2.04589,-6.3836016 Q 162.32836,9.8347664e-7 165.95058,9.8347664e-7 q 1.49808,0 2.82846,0.30185155652336 1.34156,0.32421094 2.45953,0.95027346 v 1.0844297 q -1.12915,-0.6260625 -2.41481,-0.9502735 -1.27449,-0.3130312 -2.68313,-0.3130312 -3.36508,0 -5.05322,1.9117265 -1.68813,1.9005469 -1.68813,5.6792813 0,3.8346332 1.68813,5.7687182 1.68814,1.945266 5.05322,1.945266 1.3751,0 2.45953,-0.190055 1.07325,-0.201234 1.93409,-0.614882 z"
       style="font-weight:300;fill:#ffffff;stroke-width:1.43099999"
       id="path39"
       inkscape:connector-curvature="0" />
    <path
       d="m 176.86197,0.30185254 h 1.16268 V 16.993126 h -1.16268 z"
       style="font-weight:300;fill:#ffffff;stroke-width:1.43099999"
       id="path41"
       inkscape:connector-curvature="0" />
    <path
       d="m 192.9607,1.1403291 v 1.0508906 q -1.09561,-0.5478047 -2.42599,-0.9726328 -0.87202,-0.27949217 -2.2024,-0.30185155 -1.96762,-0.0335391 -3.19739,0.87201565 -1.11797,0.8272968 -1.11797,2.8396406 0,1.2409453 0.84966,1.967625 0.90555,0.7713984 2.72784,1.2409453 l 1.33038,0.3465703 q 1.78875,0.4695469 2.76139,1.1179687 1.82229,1.2409451 1.82229,3.1191331 0,2.716664 -1.5987,3.767554 -1.74403,1.129149 -3.5775,1.129149 -1.91173,0 -3.42098,-0.525445 -0.95028,-0.38011 -1.98999,-1.050891 v -1.095609 q 1.56516,0.927914 2.19122,1.185046 1.39746,0.570164 2.59369,0.570164 2.04588,0 3.39862,-0.905554 1.27449,-0.849656 1.27449,-2.984977 0,-1.252125 -0.78258,-1.967625 -1.12915,-1.0397107 -2.92908,-1.4757185 l -1.34156,-0.3242109 q -1.60988,-0.3912891 -2.73902,-1.0956094 -1.7105,-1.07325 -1.7105,-2.9290781 0,-2.3141953 1.39746,-3.5551406 1.29685,-1.15150783 3.93525,-1.16268751652336 1.55398,0 2.38128,0.26831249652336 2.12414,0.69314062 2.37009,0.87201562 z"
       style="font-weight:300;fill:#ffffff;stroke-width:1.43099999"
       id="path43"
       inkscape:connector-curvature="0" />
    <path
       d="m 195.87861,0.30185254 h 12.97961 V 1.2185869 h -5.92523 V 16.993126 h -1.12915 V 1.2185869 h -5.92523 z"
       style="font-weight:300;fill:#ffffff;stroke-width:1.43099999"
       id="path45"
       inkscape:connector-curvature="0" />
    <path
       d="m 212.14505,0.30185254 h 1.16268 V 16.993126 h -1.16268 z"
       style="font-weight:300;fill:#ffffff;stroke-width:1.43099999"
       id="path47"
       inkscape:connector-curvature="0" />
    <path
       d="m 230.87102,1.6881338 v 1.285664 q -1.14032,-1.0397109 -2.42599,-1.5427968 -1.29684,-0.51426565 -2.7502,-0.51426565 -3.15267,0 -4.81845,1.98998435 -1.67695,1.9899844 -1.67695,5.7575391 0,3.7675542 1.67695,5.7687182 1.66578,2.001165 4.81845,2.001165 1.45336,0 2.7502,-0.514266 1.28567,-0.525445 2.42599,-1.565156 v 1.352742 q -1.18504,0.804937 -2.51542,1.207406 -1.31921,0.402469 -2.79493,0.402469 -3.51042,0 -5.52276,-2.314195 -2.01235,-2.325375 -2.01235,-6.3388832 0,-4.0246875 2.01235,-6.3388828 Q 222.05025,9.8347664e-7 225.56067,9.8347664e-7 q 1.49808,0 2.81728,0.42482812652336 1.33039,0.41364843 2.49307,1.26330469 z"
       style="font-weight:300;fill:#ffffff;stroke-width:1.43099999"
       id="path49"
       inkscape:connector-curvature="0" />
    <path
       d="m 244.25312,1.1403291 v 1.0508906 q -1.09561,-0.5478047 -2.42599,-0.9726328 -0.87202,-0.27949217 -2.2024,-0.30185155 -1.96762,-0.0335391 -3.19739,0.87201565 -1.11797,0.8272968 -1.11797,2.8396406 0,1.2409453 0.84966,1.967625 0.90555,0.7713984 2.72784,1.2409453 l 1.33038,0.3465703 q 1.78875,0.4695469 2.76139,1.1179687 1.82229,1.2409451 1.82229,3.1191331 0,2.716664 -1.5987,3.767554 -1.74403,1.129149 -3.5775,1.129149 -1.91173,0 -3.42098,-0.525445 -0.95028,-0.38011 -1.98999,-1.050891 v -1.095609 q 1.56516,0.927914 2.19122,1.185046 1.39746,0.570164 2.59369,0.570164 2.04588,0 3.39862,-0.905554 1.27449,-0.849656 1.27449,-2.984977 0,-1.252125 -0.78258,-1.967625 -1.12915,-1.0397107 -2.92908,-1.4757185 l -1.34156,-0.3242109 q -1.60988,-0.3912891 -2.73902,-1.0956094 -1.7105,-1.07325 -1.7105,-2.9290781 0,-2.3141953 1.39746,-3.5551406 1.29685,-1.15150783 3.93525,-1.16268751652336 1.55398,0 2.38128,0.26831249652336 2.12414,0.69314062 2.37009,0.87201562 z"
       style="font-weight:300;fill:#ffffff;stroke-width:1.43099999"
       id="path51"
       inkscape:connector-curvature="0" />
    <path
       d="M -8.1025064e-8,24.401362 H 0.6351459 v 4.125305 h 5.2509594 v -4.125305 h 0.6351459 v 9.388841 H 5.8861053 V 29.036041 H 0.6351459 v 4.754162 H -8.1025064e-8 Z"
       style="font-weight:300;font-size:12.87899971px;fill:#ffffff;stroke-width:1.43099999"
       id="path53"
       inkscape:connector-curvature="0" />
    <path
       d="m 12.39478,29.815824 q -1.396064,0 -2.012344,0.496798 -0.6162802,0.496797 -0.6162802,1.45266 0,0.930709 0.5093742,1.320601 0.509375,0.389891 1.207406,0.389891 1.320601,0 1.89915,-1.119366 0.584837,-1.119366 0.584837,-2.106672 v -0.433912 z m 2.156981,-0.04402 v 4.018399 H 13.9795 v -1.911726 q -0.48422,1.402352 -1.282869,1.785955 -0.635146,0.30814 -1.264003,0.30814 -1.050192,0 -1.6538951,-0.559683 -0.6037031,-0.565972 -0.6037031,-1.660184 0,-1.094212 0.7860718,-1.748223 0.7860714,-0.660301 2.5720264,-0.660301 h 1.433795 v -0.113194 q 0,-0.936998 -0.534529,-1.540701 -0.52824,-0.603703 -1.748223,-0.603703 -0.603703,0 -1.232561,0.226389 -0.402468,0.144637 -1.043903,0.584837 V 27.27524 q 0.5596831,-0.345871 1.043903,-0.490508 0.704321,-0.207523 1.352044,-0.207523 1.245137,0 2.050075,0.754629 0.698032,0.647723 0.698032,2.439966 z"
       style="font-weight:300;font-size:12.87899971px;fill:#ffffff;stroke-width:1.43099999"
       id="path55"
       inkscape:connector-curvature="0" />
    <path
       d="m 17.46337,26.747 h 0.578549 v 6.552694 h 4.383136 V 26.747 h 0.578549 v 6.552694 h 0.874112 V 35.56987 H 23.387207 V 33.790203 H 17.46337 Z"
       style="font-weight:300;font-size:12.87899971px;fill:#ffffff;stroke-width:1.43099999"
       id="path57"
       inkscape:connector-curvature="0" />
    <path
       d="M 26.254796,33.790203 V 26.747 h 0.578549 v 6.414346 L 30.95865,26.747 h 0.861534 v 7.043203 H 31.241635 V 27.36328 l -4.14417,6.426923 z"
       style="font-weight:300;font-size:12.87899971px;fill:#ffffff;stroke-width:1.43099999"
       id="path59"
       inkscape:connector-curvature="0" />
    <path
       d="m 38.919984,27.954406 q -0.622569,-0.867823 -1.697915,-0.867823 -1.075346,0 -1.697915,0.861535 -0.628858,0.855246 -0.628858,2.314195 0,1.496681 0.622569,2.351927 0.622569,0.861534 1.704204,0.861534 1.075346,0 1.697915,-0.861534 0.628857,-0.867823 0.628857,-2.351927 0,-1.440083 -0.628857,-2.307907 z M 37.21578,26.577209 q 1.345755,0 2.125538,1.006171 0.786072,1.012461 0.786072,2.685222 0,1.729357 -0.786072,2.729241 -0.779783,1.006172 -2.125538,1.006172 -1.358332,0 -2.144403,-0.999884 -0.779784,-0.999883 -0.779784,-2.735529 0,-1.691627 0.786072,-2.69151 0.786072,-0.999883 2.138115,-0.999883 z"
       style="font-weight:300;font-size:12.87899971px;fill:#ffffff;stroke-width:1.43099999"
       id="path61"
       inkscape:connector-curvature="0" />
    <path
       d="M 42.605092,33.790203 V 26.747 h 0.578549 v 3.106556 h 4.345405 V 26.747 h 0.578548 v 7.043203 h -0.578548 v -3.446138 h -4.345405 v 3.446138 z"
       style="font-weight:300;font-size:12.87899971px;fill:#ffffff;stroke-width:1.43099999"
       id="path63"
       inkscape:connector-curvature="0" />
    <path
       d="m 53.849062,29.815824 q -1.396063,0 -2.012343,0.496798 -0.61628,0.496797 -0.61628,1.45266 0,0.930709 0.509374,1.320601 0.509375,0.389891 1.207406,0.389891 1.320601,0 1.89915,-1.119366 0.584837,-1.119366 0.584837,-2.106672 v -0.433912 z m 2.156981,-0.04402 v 4.018399 h -0.57226 v -1.911726 q -0.48422,1.402352 -1.282869,1.785955 -0.635146,0.30814 -1.264003,0.30814 -1.050192,0 -1.653895,-0.559683 -0.603703,-0.565972 -0.603703,-1.660184 0,-1.094212 0.786071,-1.748223 0.786072,-0.660301 2.572027,-0.660301 h 1.433795 v -0.113194 q 0,-0.936998 -0.534529,-1.540701 -0.52824,-0.603703 -1.748223,-0.603703 -0.603704,0 -1.232561,0.226389 -0.402469,0.144637 -1.043903,0.584837 V 27.27524 q 0.559683,-0.345871 1.043903,-0.490508 0.70432,-0.207523 1.352044,-0.207523 1.245137,0 2.050075,0.754629 0.698031,0.647723 0.698031,2.439966 z"
       style="font-weight:300;font-size:12.87899971px;fill:#ffffff;stroke-width:1.43099999"
       id="path65"
       inkscape:connector-curvature="0" />
    <path
       d="m 58.07498,33.972572 0.0063,-0.515663 q 1.125655,-0.188658 1.496681,-1.056481 0.61628,-1.421218 0.61628,-4.32025 V 26.747 h 4.200767 v 7.043203 h -0.578549 v -6.57156 H 60.77279 v 1.333178 q 0,2.301618 -0.609992,3.936647 -0.490509,1.301735 -2.087807,1.484104 z"
       style="font-weight:300;font-size:12.87899971px;fill:#ffffff;stroke-width:1.43099999"
       id="path67"
       inkscape:connector-curvature="0" />
    <path
       d="m 67.727943,33.299694 h 1.993478 q 0.974729,0 1.440083,-0.358448 0.465355,-0.358449 0.465355,-1.100501 0,-0.773494 -0.477932,-1.131943 -0.471643,-0.358449 -1.427506,-0.358449 h -1.993478 z m -0.578549,0.490509 V 26.747 h 0.578549 v 3.112844 h 2.043786 q 1.138232,0 1.785956,0.490509 0.654011,0.490509 0.654011,1.477815 0,0.993595 -0.635146,1.477815 -0.628857,0.48422 -1.804821,0.48422 z"
       style="font-weight:300;font-size:12.87899971px;fill:#ffffff;stroke-width:1.43099999"
       id="path69"
       inkscape:connector-curvature="0" />
    <path
       d="M 74.752278,33.790203 V 26.747 h 0.578549 v 3.106556 h 4.345405 V 26.747 h 0.578549 v 7.043203 h -0.578549 v -3.446138 h -4.345405 v 3.446138 z"
       style="font-weight:300;font-size:12.87899971px;fill:#ffffff;stroke-width:1.43099999"
       id="path71"
       inkscape:connector-curvature="0" />
    <path
       d="m 85.996249,29.815824 q -1.396064,0 -2.012344,0.496798 -0.61628,0.496797 -0.61628,1.45266 0,0.930709 0.509374,1.320601 0.509375,0.389891 1.207407,0.389891 1.3206,0 1.899149,-1.119366 0.584837,-1.119366 0.584837,-2.106672 v -0.433912 z m 2.156981,-0.04402 v 4.018399 h -0.572261 v -1.911726 q -0.48422,1.402352 -1.282869,1.785955 -0.635146,0.30814 -1.264003,0.30814 -1.050192,0 -1.653895,-0.559683 -0.603703,-0.565972 -0.603703,-1.660184 0,-1.094212 0.786072,-1.748223 0.786071,-0.660301 2.572026,-0.660301 h 1.433795 v -0.113194 q 0,-0.936998 -0.534529,-1.540701 -0.52824,-0.603703 -1.748223,-0.603703 -0.603703,0 -1.232561,0.226389 -0.402468,0.144637 -1.043903,0.584837 V 27.27524 q 0.559683,-0.345871 1.043903,-0.490508 0.704321,-0.207523 1.352044,-0.207523 1.245137,0 2.050075,0.754629 0.698032,0.647723 0.698032,2.439966 z"
       style="font-weight:300;font-size:12.87899971px;fill:#ffffff;stroke-width:1.43099999"
       id="path73"
       inkscape:connector-curvature="0" />
    <path
       d="m 91.938955,27.589669 q -0.465355,0.345872 -0.465355,1.037615 0,0.691743 0.465355,1.050192 0.471643,0.35216 1.477815,0.35216 h 1.785955 V 27.237509 H 93.41677 q -1.006172,0 -1.477815,0.35216 z m -1.465238,6.200534 2.320484,-3.295213 q -0.74834,0 -1.326889,-0.48422 -0.578549,-0.490509 -0.578549,-1.383486 0,-0.892978 0.578549,-1.383487 Q 92.052149,26.747 93.385327,26.747 h 2.395947 v 7.043203 h -0.578549 v -3.270058 h -1.723069 l -2.301618,3.270058 z"
       style="font-weight:300;font-size:12.87899971px;fill:#ffffff;stroke-width:1.43099999"
       id="path75"
       inkscape:connector-curvature="0" />
    <path
       d="m 101.94408,33.972572 0.006,-0.515663 q 1.12566,-0.188658 1.49668,-1.056481 0.61628,-1.421218 0.61628,-4.32025 V 26.747 h 4.20077 v 7.043203 h -0.57855 v -6.57156 h -3.04367 v 1.333178 q 0,2.301618 -0.60999,3.936647 -0.49051,1.301735 -2.0878,1.484104 z"
       style="font-weight:300;font-size:12.87899971px;fill:#ffffff;stroke-width:1.43099999"
       id="path77"
       inkscape:connector-curvature="0" />
    <path
       d="m 115.21297,27.954406 q -0.62257,-0.867823 -1.69792,-0.867823 -1.07534,0 -1.69791,0.861535 -0.62886,0.855246 -0.62886,2.314195 0,1.496681 0.62257,2.351927 0.62257,0.861534 1.7042,0.861534 1.07535,0 1.69792,-0.861534 0.62886,-0.867823 0.62886,-2.351927 0,-1.440083 -0.62886,-2.307907 z m -1.70421,-1.377197 q 1.34576,0 2.12554,1.006171 0.78607,1.012461 0.78607,2.685222 0,1.729357 -0.78607,2.729241 -0.77978,1.006172 -2.12554,1.006172 -1.35833,0 -2.1444,-0.999884 -0.77978,-0.999883 -0.77978,-2.735529 0,-1.691627 0.78607,-2.69151 0.78607,-0.999883 2.13811,-0.999883 z"
       style="font-weight:300;font-size:12.87899971px;fill:#ffffff;stroke-width:1.43099999"
       id="path79"
       inkscape:connector-curvature="0" />
    <path
       d="M 118.98611,33.790203 V 26.747 h 4.27623 v 0.490509 h -3.70397 v 6.552694 z"
       style="font-weight:300;font-size:12.87899971px;fill:#ffffff;stroke-width:1.43099999"
       id="path81"
       inkscape:connector-curvature="0" />
    <path
       d="M 125.23695,33.790203 V 26.747 h 0.57855 v 6.414346 L 129.9408,26.747 h 0.86154 v 7.043203 h -0.57855 V 27.36328 l -4.14417,6.426923 z"
       style="font-weight:300;font-size:12.87899971px;fill:#ffffff;stroke-width:1.43099999"
       id="path83"
       inkscape:connector-curvature="0" />
    <path
       d="m 138.53729,27.086583 v 0.61628 q -0.52195,-0.320717 -0.86153,-0.433911 -0.58484,-0.182369 -1.11937,-0.182369 -1.52183,0 -2.18213,0.779783 -0.6603,0.779783 -0.6603,2.408524 0,1.641318 0.6603,2.421101 0.6603,0.779783 2.18213,0.779783 0.50309,0 0.9936,-0.138348 0.49679,-0.13206 0.9873,-0.402469 v 0.584837 q -0.48422,0.226389 -0.99988,0.339583 -0.52195,0.113195 -1.03133,0.113195 -1.54699,0 -2.45883,-0.836381 -0.91184,-0.842669 -0.91184,-2.861301 0,-2.018632 0.91184,-2.861301 0.91184,-0.83638 2.45883,-0.83638 0.50309,0 1.06906,0.144637 0.56597,0.138348 0.96215,0.364737 z"
       style="font-weight:300;font-size:12.87899971px;fill:#ffffff;stroke-width:1.43099999"
       id="path85"
       inkscape:connector-curvature="0" />
    <path
       d="M 139.78871,27.243797 V 26.747 h 6.18796 v 0.496797 h -2.8047 v 6.546406 h -0.57855 v -6.546406 z"
       style="font-weight:300;font-size:12.87899971px;fill:#ffffff;stroke-width:1.43099999"
       id="path87"
       inkscape:connector-curvature="0" />
    <path
       d="M 147.87582,33.790203 V 26.747 h 0.57855 v 6.414346 l 4.1253,-6.414346 h 0.86154 v 7.043203 h -0.57855 V 27.36328 l -4.14417,6.426923 z"
       style="font-weight:300;font-size:12.87899971px;fill:#ffffff;stroke-width:1.43099999"
       id="path89"
       inkscape:connector-curvature="0" />
    <path
       d="m 160.45298,33.790203 v -3.182018 h -1.9809 q -1.12566,0 -1.72936,-0.654012 -0.59742,-0.578549 -0.59742,-1.333178 V 26.747 h 0.57855 v 1.804821 q 0,0.622569 0.45278,1.094212 0.45907,0.471643 1.37091,0.471643 h 1.90544 V 26.747 h 0.57855 v 7.043203 z"
       style="font-weight:300;font-size:12.87899971px;fill:#ffffff;stroke-width:1.43099999"
       id="path91"
       inkscape:connector-curvature="0" />
    <path
       d="m 169.4645,29.979327 v 0.364738 h -5.34529 q 0,1.697915 0.6603,2.377081 0.72948,0.754628 2.16956,0.754628 0.37732,0 0.99988,-0.163503 0.62886,-0.163502 1.24514,-0.490508 v 0.609991 q -0.62257,0.26412 -1.27658,0.402469 -0.65401,0.138349 -1.03761,0.138349 -1.62874,0 -2.45255,-0.880401 -0.89297,-0.936997 -0.89297,-2.748106 0,-1.880284 0.81751,-2.804705 0.83638,-0.962151 2.32677,-0.962151 1.38349,0 2.08781,0.911843 0.69803,0.955863 0.69803,2.490275 z m -0.58484,-0.125771 q 0,-1.484104 -0.66658,-2.16327 -0.55969,-0.603703 -1.52184,-0.603703 -1.05019,0 -1.7608,0.628858 -0.65401,0.584837 -0.78607,2.138115 z"
       style="font-weight:300;font-size:12.87899971px;fill:#ffffff;stroke-width:1.43099999"
       id="path93"
       inkscape:connector-curvature="0" />
    <path
       d="m 176.72151,27.086583 v 0.61628 q -0.52195,-0.320717 -0.86153,-0.433911 -0.58484,-0.182369 -1.11937,-0.182369 -1.52183,0 -2.18213,0.779783 -0.6603,0.779783 -0.6603,2.408524 0,1.641318 0.6603,2.421101 0.6603,0.779783 2.18213,0.779783 0.50309,0 0.9936,-0.138348 0.49679,-0.13206 0.9873,-0.402469 v 0.584837 q -0.48422,0.226389 -0.99988,0.339583 -0.52195,0.113195 -1.03133,0.113195 -1.54699,0 -2.45883,-0.836381 -0.91184,-0.842669 -0.91184,-2.861301 0,-2.018632 0.91184,-2.861301 0.91184,-0.83638 2.45883,-0.83638 0.50309,0 1.06906,0.144637 0.56597,0.138348 0.96215,0.364737 z"
       style="font-weight:300;font-size:12.87899971px;fill:#ffffff;stroke-width:1.43099999"
       id="path95"
       inkscape:connector-curvature="0" />
    <path
       d="M 178.99168,33.790203 V 26.747 h 0.57855 v 3.773145 L 183.29307,26.747 h 0.81751 l -2.74182,2.77955 2.99336,4.263653 h -0.70432 l -2.70408,-3.842319 -1.38349,1.402352 v 2.439967 z"
       style="font-weight:300;font-size:12.87899971px;fill:#ffffff;stroke-width:1.43099999"
       id="path97"
       inkscape:connector-curvature="0" />
    <path
       d="m 189.45587,29.815824 q -1.39606,0 -2.01234,0.496798 -0.61628,0.496797 -0.61628,1.45266 0,0.930709 0.50937,1.320601 0.50938,0.389891 1.20741,0.389891 1.3206,0 1.89915,-1.119366 0.58484,-1.119366 0.58484,-2.106672 v -0.433912 z m 2.15698,-0.04402 v 4.018399 h -0.57226 v -1.911726 q -0.48422,1.402352 -1.28286,1.785955 -0.63515,0.30814 -1.26401,0.30814 -1.05019,0 -1.65389,-0.559683 -0.60371,-0.565972 -0.60371,-1.660184 0,-1.094212 0.78608,-1.748223 0.78607,-0.660301 2.57202,-0.660301 h 1.4338 v -0.113194 q 0,-0.936998 -0.53453,-1.540701 -0.52824,-0.603703 -1.74822,-0.603703 -0.60371,0 -1.23257,0.226389 -0.40246,0.144637 -1.0439,0.584837 V 27.27524 q 0.55968,-0.345871 1.0439,-0.490508 0.70432,-0.207523 1.35205,-0.207523 1.24514,0 2.05007,0.754629 0.69803,0.647723 0.69803,2.439966 z"
       style="font-weight:300;font-size:12.87899971px;fill:#ffffff;stroke-width:1.43099999"
       id="path99"
       inkscape:connector-curvature="0" />
    <path
       d="m 195.39858,27.589669 q -0.46535,0.345872 -0.46535,1.037615 0,0.691743 0.46535,1.050192 0.47164,0.35216 1.47782,0.35216 h 1.78595 v -2.792127 h -1.78595 q -1.00618,0 -1.47782,0.35216 z m -1.46524,6.200534 2.32049,-3.295213 q -0.74834,0 -1.32689,-0.48422 -0.57855,-0.490509 -0.57855,-1.383486 0,-0.892978 0.57855,-1.383487 0.58483,-0.496797 1.91801,-0.496797 h 2.39595 v 7.043203 h -0.57855 v -3.270058 h -1.72307 l -2.30162,3.270058 z"
       style="font-weight:300;font-size:12.87899971px;fill:#ffffff;stroke-width:1.43099999"
       id="path101"
       inkscape:connector-curvature="0" />
    <path
       d="M 206.25894,33.790203 V 26.747 h 0.57855 v 3.773145 L 210.56032,26.747 h 0.81752 l -2.74182,2.77955 2.99336,4.263653 h -0.70432 l -2.70409,-3.842319 -1.38348,1.402352 v 2.439967 z"
       style="font-weight:300;font-size:12.87899971px;fill:#ffffff;stroke-width:1.43099999"
       id="path103"
       inkscape:connector-curvature="0" />
    <path
       d="m 218.09404,27.954406 q -0.62257,-0.867823 -1.69791,-0.867823 -1.07535,0 -1.69792,0.861535 -0.62886,0.855246 -0.62886,2.314195 0,1.496681 0.62257,2.351927 0.62257,0.861534 1.70421,0.861534 1.07534,0 1.69791,-0.861534 0.62886,-0.867823 0.62886,-2.351927 0,-1.440083 -0.62886,-2.307907 z m -1.7042,-1.377197 q 1.34575,0 2.12554,1.006171 0.78607,1.012461 0.78607,2.685222 0,1.729357 -0.78607,2.729241 -0.77979,1.006172 -2.12554,1.006172 -1.35833,0 -2.14441,-0.999884 -0.77978,-0.999883 -0.77978,-2.735529 0,-1.691627 0.78607,-2.69151 0.78607,-0.999883 2.13812,-0.999883 z"
       style="font-weight:300;font-size:12.87899971px;fill:#ffffff;stroke-width:1.43099999"
       id="path105"
       inkscape:connector-curvature="0" />
    <path
       d="m 222.08099,26.747 h 0.91813 l 2.18214,5.162919 2.19471,-5.162919 h 0.89298 v 7.043203 h -0.56597 v -6.364037 l -2.13812,5.011994 h -0.77978 l -2.13183,-5.037148 v 6.389191 h -0.57226 z"
       style="font-weight:300;font-size:12.87899971px;fill:#ffffff;stroke-width:1.43099999"
       id="path107"
       inkscape:connector-curvature="0" />
    <path
       d="M 231.48871,33.790203 V 26.747 h 5.5025 v 7.043203 h -0.57855 v -6.552694 h -4.34541 v 6.552694 z"
       style="font-weight:300;font-size:12.87899971px;fill:#ffffff;stroke-width:1.43099999"
       id="path109"
       inkscape:connector-curvature="0" />
    <path
       d="m 242.73267,29.815824 q -1.39607,0 -2.01235,0.496798 -0.61628,0.496797 -0.61628,1.45266 0,0.930709 0.50938,1.320601 0.50937,0.389891 1.20741,0.389891 1.3206,0 1.89914,-1.119366 0.58484,-1.119366 0.58484,-2.106672 v -0.433912 z m 2.15698,-0.04402 v 4.018399 h -0.57226 v -1.911726 q -0.48422,1.402352 -1.28287,1.785955 -0.63515,0.30814 -1.264,0.30814 -1.0502,0 -1.6539,-0.559683 -0.6037,-0.565972 -0.6037,-1.660184 0,-1.094212 0.78607,-1.748223 0.78607,-0.660301 2.57203,-0.660301 h 1.43379 v -0.113194 q 0,-0.936998 -0.53453,-1.540701 -0.52824,-0.603703 -1.74822,-0.603703 -0.6037,0 -1.23256,0.226389 -0.40247,0.144637 -1.0439,0.584837 V 27.27524 q 0.55968,-0.345871 1.0439,-0.490508 0.70432,-0.207523 1.35204,-0.207523 1.24514,0 2.05008,0.754629 0.69803,0.647723 0.69803,2.439966 z"
       style="font-weight:300;font-size:12.87899971px;fill:#ffffff;stroke-width:1.43099999"
       id="path111"
       inkscape:connector-curvature="0" />
    <path
       d="M 247.81384,33.790203 V 26.747 h 0.57855 v 3.106556 h 4.3454 V 26.747 h 0.57855 v 7.043203 h -0.57855 v -3.446138 h -4.3454 v 3.446138 z"
       style="font-weight:300;font-size:12.87899971px;fill:#ffffff;stroke-width:1.43099999"
       id="path113"
       inkscape:connector-curvature="0" />
    <path
       d="M 256.24054,33.790203 V 26.747 h 0.57855 v 6.414346 l 4.1253,-6.414346 h 0.86153 v 7.043203 h -0.57854 V 27.36328 l -4.14417,6.426923 z"
       style="font-weight:300;font-size:12.87899971px;fill:#ffffff;stroke-width:1.43099999"
       id="path115"
       inkscape:connector-curvature="0" />
    <path
       d="m 265.57906,27.589669 q -0.46535,0.345872 -0.46535,1.037615 0,0.691743 0.46535,1.050192 0.47164,0.35216 1.47782,0.35216 h 1.78595 v -2.792127 h -1.78595 q -1.00618,0 -1.47782,0.35216 z m -1.46524,6.200534 2.32049,-3.295213 q -0.74834,0 -1.32689,-0.48422 -0.57855,-0.490509 -0.57855,-1.383486 0,-0.892978 0.57855,-1.383487 0.58484,-0.496797 1.91801,-0.496797 h 2.39595 v 7.043203 h -0.57855 v -3.270058 h -1.72307 l -2.30162,3.270058 z"
       style="font-weight:300;font-size:12.87899971px;fill:#ffffff;stroke-width:1.43099999"
       id="path117"
       inkscape:connector-curvature="0" />
  </g>
</svg>
